<?xml version="1.0" encoding="UTF-8"?>
<!DOCTYPE svg PUBLIC "-//W3C//DTD SVG 1.1//EN" "http://www.w3.org/Graphics/SVG/1.1/DTD/svg11.dtd">
<!-- Creator: CorelDRAW -->
<svg xmlns="http://www.w3.org/2000/svg" xml:space="preserve" width="41.49mm" height="21.78mm" version="1.1" style="shape-rendering:geometricPrecision; text-rendering:geometricPrecision; image-rendering:optimizeQuality; fill-rule:evenodd; clip-rule:evenodd"
viewBox="0 0 4149 2178"
 xmlns:xlink="http://www.w3.org/1999/xlink"
 xmlns:xodm="http://www.corel.com/coreldraw/odm/2003">
 <defs>
  <style type="text/css">
   <![CDATA[
    .fil1 {fill:#373435;fill-rule:nonzero}
    .fil0 {fill:#FFCC29;fill-rule:nonzero}
   ]]>
  </style>
 </defs>
 <g id="Camada_x0020_1">
  <metadata id="CorelCorpID_0Corel-Layer"/>
  <g id="_2396359932992">
   <path class="fil0" d="M200.18 531.75l-41.65 -301.24 6.62 -0.92 133.67 288.52 113.21 -15.66 50.39 -313.95 6.62 -0.91 41.64 301.23 129.1 -17.85 -64.07 -463.44 -181.4 25.08 -54.48 342.86 -145.46 -315.22 -180.74 24.99 64.07 463.44 122.48 -16.93zm970.55 -46.76l-143.42 -471.11 -174.4 -3.83 -163.94 464.37 136.31 2.99 25.22 -83.01 159.02 3.49 21.56 84.04 139.65 3.06zm-238.05 -362.88l6.68 0.15 44.3 174.78 -102.9 -2.26 51.92 -172.67zm418.06 379.44l12.76 -157.21c3.14,-38.64 5.34,-74 6.02,-115.51l6.67 0.54 141.09 285.71 139.9 11.35 37.85 -466.32 -129.91 -10.54 -12.76 157.22c-3.08,37.97 -5.33,73.99 -6.02,115.51l-6.66 -0.54 -141.1 -285.71 -139.89 -11.36 -37.85 466.33 129.9 10.53zm836.86 81.68l-99.7 -482.25 -173.32 -19.77 -205.75 447.41 135.46 15.45 32.71 -80.35 158.04 18.03 13.78 85.65 138.78 15.83zm-203.84 -383.13l6.64 0.75 28.11 178.11 -102.26 -11.67 67.51 -167.19zm459.1 424.24c118.82,14.02 218.01,-39.55 233.91,-174.3l32.11 -272.14 -132.75 -15.66 -32.11 272.14c-6.26,53.1 -38.99,79.52 -87.45,73.81 -49.12,-5.8 -74.72,-39.78 -68.53,-92.22l32.11 -272.13 -132.75 -15.67 -32.11 272.14c-15.9,134.74 68.77,210.01 187.57,224.03zm730.33 60.54l-118.08 -478.09 -173.94 -13.13 -188.5 454.96 135.96 10.25 29.61 -81.54 158.62 11.97 17.04 85.07 139.29 10.51zm-218.35 -375.06l6.66 0.5 34.91 176.9 -102.63 -7.75 61.06 -169.65zm403.35 370.21l-7.17 -155.56 56.08 -2.59 76.61 152.37 148.21 -6.83 -101.62 -172.62c47.6,-26.95 73.55,-73.65 70.73,-135.06 -4.71,-102.15 -76.1,-155.74 -187.59,-150.6l-210.31 9.68 21.53 467.36 133.53 -6.15zm-16.76 -363.87l63.42 -2.92c36.72,-1.69 61.01,17.26 62.65,52.65 1.59,34.71 -20.85,55.82 -57.57,57.51l-63.43 2.92 -5.07 -110.16zm782.6 239.88l-256.64 -420.3 -169.81 39.89 -42.67 490.6 132.74 -31.18 3.66 -86.68 154.85 -36.37 41.88 75.98 135.99 -31.94zm-321.21 -291.85l6.51 -1.53 86.58 158.16 -100.2 23.54 7.11 -180.17z"/>
   <path class="fil1" d="M1859.76 1454.92c201.46,20.53 316.13,-59.53 328.46,-180.44 31.27,-306.88 -386.15,-246.94 -373.58,-370.29 3.43,-33.57 39.27,-54.18 86.25,-49.39 53.23,5.43 88.47,32.22 97.85,85.03l206.56 -19.2c-22.41,-132.01 -130.12,-203.1 -289.82,-219.37 -186.84,-19.05 -301.63,62.06 -313.77,181.23 -30.66,300.79 386.41,244.33 373.98,366.29 -3.92,38.44 -40.79,58.76 -100.29,52.7 -57.41,-5.85 -106.23,-33.85 -122.94,-97.6l-202.34 19.28c20.42,141.11 155.16,216.02 309.64,231.76zm1094.69 115.86c122.35,9.88 238.17,-16.55 329.02,-98.68l23.82 -294.92 -324.2 -26.19 -9.54 118.18 124.99 16.41 -7.61 94.12c-34.28,20.39 -72.77,27.81 -117.74,24.17 -110.85,-8.95 -168.4,-91.49 -157.75,-223.26 10.64,-131.78 81.73,-203.93 174.81,-196.41 57.52,4.65 108.66,36.15 123.83,108.95l211.58 -26.07c-25.91,-148.4 -133.65,-235 -321.9,-250.21 -231.12,-18.67 -379.41,123.04 -397.48,346.84 -18.08,223.8 107.63,387.64 348.17,407.07z"/>
   <path class="fil1" d="M3627.35 1572.03l-6.44 -247.53c-1.58,-60.83 -4.08,-116.39 -9.96,-181.31l10.48 -0.27 268.13 422.29 220.26 -5.73 -19.1 -734.19 -204.52 5.32 6.43 247.52c1.56,59.79 4.08,116.4 9.97,181.32l-10.49 0.27 -268.13 -422.29 -220.26 5.73 19.1 734.19 204.53 -5.32z"/>
   <polygon class="fil1" points="2488.91,1483.25 2544.61,750.92 2335.37,735 2279.68,1467.34 "/>
   <path class="fil1" d="M457.35 1385.69c240.73,-28.19 363.16,-191.47 337.65,-409.27 -25.5,-217.8 -182.34,-348.38 -423.07,-320.19l-291.78 34.17 85.42 729.46 291.78 -34.17zm-148.65 -547.75l83.37 -9.77c107.33,-12.56 180.24,50.73 194.52,172.66 14.28,121.92 -42.04,200.35 -149.37,212.92l-83.37 9.76 -45.15 -385.57z"/>
   <polygon class="fil1" points="1437.85,1372.63 1445.67,1204.93 1089.32,1188.32 1095.82,1048.93 1410.24,1063.59 1416.79,923.15 1102.37,908.49 1107.89,790.06 1464.23,806.67 1472.05,638.98 906.09,612.59 871.89,1346.24 "/>
   <path class="fil1" d="M1151.5 2185.53c55.36,0 106.47,-16.09 144.33,-56.31l0 -133.45 -146.7 0 0 53.48 56.79 2.84 0 42.59c-14.67,10.41 -31.71,15.13 -52.06,15.13 -50.16,0 -79.03,-35.01 -79.03,-94.64 0,-59.62 29.35,-94.65 71.46,-94.65 26.03,0 50.16,12.31 59.63,44.49l94.17 -19.4c-17.03,-65.78 -68.62,-100.8 -153.8,-100.8 -104.58,0 -166.1,69.09 -166.1,170.36 0,101.27 62.47,170.36 171.31,170.36zm296.71 -4.73l0 -110.26 39.74 0 49.22 110.26 105.06 0 -66.26 -125.4c34.55,-17.51 54.42,-49.69 54.42,-93.23 0,-72.4 -48.74,-112.62 -127.77,-112.62l-149.06 0 0 331.25 94.65 0zm0 -257.9l44.95 0c26.03,0 42.59,14.19 42.59,39.27 0,24.61 -16.56,38.81 -42.59,38.81l-44.95 0 0 -78.08zm380.46 -182.2l-34.06 80.46 69.56 0 67.2 -80.46 -102.7 0zm170.84 440.1l-108.84 -331.25 -123.51 0 -108.84 331.25 96.53 0 16.57 -59.15 112.62 0 16.57 59.15 98.9 0zm-174.14 -253.17l4.73 0 34.07 123.03 -72.88 0 34.08 -123.03zm304.28 253.17l0 -123.99 144.33 0 0 -68.61 -144.33 0 0 -62.94 158.53 0 0 -75.71 -253.18 0 0 331.25 94.65 0zm299.55 0l0 -331.25 -94.65 0 0 331.25 94.65 0zm211.05 4.73c86.6,0 141.02,-38.8 157.58,-112.63l-93.69 -18.92c-8.52,34.54 -33.13,54.42 -63.89,54.42 -43.06,0 -70.04,-34.54 -70.04,-93.23 0,-58.68 26.98,-93.22 70.04,-93.22 29.34,0 53,18.45 61.05,54.42l93.69 -18.93c-16.08,-73.35 -70.03,-112.63 -154.74,-112.63 -103.63,0 -164.68,69.09 -164.68,170.36 0,101.27 61.05,170.36 164.68,170.36zm517.23 -4.73l-108.84 -331.25 -123.51 0 -108.84 331.25 96.53 0 16.57 -59.15 112.63 0 16.56 59.15 98.9 0zm-174.14 -253.17l4.73 0 34.07 123.03 -72.88 0 34.08 -123.03z"/>
   <polygon class="fil0" points="470.74,1985.36 470.74,1940.87 -5.57,1940.87 -5.57,1985.36 "/>
   <polygon class="fil0" points="4143.23,1985.36 4143.23,1940.87 3666.92,1940.87 3666.92,1985.36 "/>
  </g>
 </g>
</svg>
